# xmcd
#
# Track frame offsets: 
#        150
#        19566
#        36347
#        52958
#        68580
#        84284
#        108177
#        131643
#        152027
#        170696
#        189321
#
# Disc length: 2901 seconds
#
# Revision: 14
# Processed by: cddbd v1.5.1PL0 Copyright (c) Steve Scherf et al.
# Submitted via: ExactAudioCopy v0.95a4
#
DISCID=810b530b
DTITLE=???? - X3
DYEAR=2004
DGENRE=
TTITLE0=GOOD BYE ??
TTITLE1=GET UP! ???? (?? Version)
TTITLE2=?????
TTITLE3=????
TTITLE4=???????
TTITLE5=???????
TTITLE6=THE LAST NIGHT
TTITLE7=?????
TTITLE8=Yeah!???????? (HIGH TUNED mix)
TTITLE9=????
TTITLE10=LOVE TRAIN
EXTD=YEAR: 2004
EXTT0=
EXTT1=
EXTT2=
EXTT3=
EXTT4=
EXTT5=
EXTT6=
EXTT7=
EXTT8=
EXTT9=
EXTT10=
PLAYORDER=
